<svg xmlns="http://www.w3.org/2000/svg" viewBox="0 0 32 32"><defs><style>.cls-1{fill:#44d62c;}</style></defs><title>icon</title><g id="Layer_2" data-name="Layer 2"><path class="cls-1" d="M14.5,16.19a.57.57,0,0,1-.18,0,4,4,0,1,1,2.66,0,.53.53,0,0,1-.7-.5v-.87c0-.8,0-1.9,0-2.38a.7.7,0,0,0-.47-.63.59.59,0,0,0-.64.25.75.75,0,0,0-.14.47v3.17a.54.54,0,0,1-.23.43A.47.47,0,0,1,14.5,16.19Zm1.14-6.73A2.93,2.93,0,0,0,14,14.81V12.49a1.78,1.78,0,0,1,.34-1.1,1.66,1.66,0,0,1,1.81-.63,1.79,1.79,0,0,1,1.21,1.63c0,.48,0,1.59,0,2.39h0a2.93,2.93,0,0,0-1.69-5.33Z"/><path class="cls-1" d="M16,30A14,14,0,1,1,30,16,14,14,0,0,1,16,30ZM16,3.06A12.94,12.94,0,1,0,28.94,16,12.95,12.95,0,0,0,16,3.06Z"/><path class="cls-1" d="M17.17,25.8H15.62a3.35,3.35,0,0,1-3.28-3.37V19.23A1.82,1.82,0,0,1,13,17.75a1.62,1.62,0,0,1,1-.34V12.49a1.78,1.78,0,0,1,.34-1.1,1.66,1.66,0,0,1,1.81-.63,1.79,1.79,0,0,1,1.21,1.63c0,.48,0,1.59,0,2.39v.31a1.65,1.65,0,0,1,1.33.83,1.5,1.5,0,0,1,1.59.8,1.87,1.87,0,0,1,.47,0,1.74,1.74,0,0,1,1.37,1.7V19c0,1.15,0,2.29,0,3.44a3.34,3.34,0,0,1-3.28,3.34Zm-3.12-7.33a.7.7,0,0,0-.4.11.81.81,0,0,0-.25.65v3.19a2.29,2.29,0,0,0,2.23,2.31c1.06,0,2.11,0,3.17,0A2.29,2.29,0,0,0,21,22.44v-4a.67.67,0,0,0-.51-.67,1.06,1.06,0,0,0-.31,0l-.25,0a.58.58,0,0,1-.5-.29c-.26-.55-.32-.61-1-.51a.53.53,0,0,1-.55-.3c-.26-.58-.54-.62-.93-.51a.54.54,0,0,1-.46-.09.51.51,0,0,1-.21-.42v-.9c0-.8,0-1.9,0-2.38a.7.7,0,0,0-.47-.63.59.59,0,0,0-.64.25.75.75,0,0,0-.14.47c0,1,0,2.52,0,3.83V18a.53.53,0,0,1-.2.42.54.54,0,0,1-.46.09A1.2,1.2,0,0,0,14.05,18.47Z"/></g></svg>