<svg xmlns="http://www.w3.org/2000/svg" viewBox="0 0 32 32"><defs><style>.cls-1{fill:#44d62c;fill-rule:evenodd;}</style></defs><g id="Layer_2" data-name="Layer 2"><g id="Artwork_2" data-name="Artwork 2"><path class="cls-1" d="M10.29,5.51a.33.33,0,0,0-.51-.15l-.4.23.41.68.4-.24A.34.34,0,0,0,10.29,5.51Z"/><polygon class="cls-1" points="14.13 26.52 13.67 27.68 14.34 27.79 14.3 26.55 14.13 26.52"/><polygon class="cls-1" points="13.42 5.18 12.86 4.06 12.69 4.11 12.77 5.35 13.42 5.18"/><path class="cls-1" d="M16.91,26.67l-.41,0,.07.89.4,0c.25,0,.37-.18.34-.49S17.16,26.65,16.91,26.67Z"/><path class="cls-1" d="M22.23,5.77a.34.34,0,0,0-.12-.52L21.7,5l-.38.69.41.23A.35.35,0,0,0,22.23,5.77Z"/><path class="cls-1" d="M16,2a14,14,0,1,0,14,14A14,14,0,0,0,16,2Zm5.44,2.41.84.47A.75.75,0,0,1,22.69,6a.77.77,0,0,1-.67.44l-.17,1-.48-.26.17-.91-.43-.23-.42.76-.44-.24Zm-3.1-1,1.56.38-.11.42L18.75,4l-.15.61.86.21-.1.42L18.5,5l-.14.57,1.07.26-.1.43-1.56-.38ZM15,5.43l1.1-1.59V3.67H15V3.31h1.83v.44l-1.1,1.58V5.5h1.1v.36H15ZM13.13,3.56l1.2,2.29L13.84,6l-.21-.41-.84.23,0,.46-.48.13L12.2,3.81ZM9.56,5a.74.74,0,0,1,1.17.25.78.78,0,0,1,.06.8l.81.67L11.13,7l-.7-.6L10,6.64l.45.75L10,7.65,8.73,5.48ZM16,6.88A9.12,9.12,0,1,1,6.89,16,9.13,9.13,0,0,1,16,6.88ZM7.21,22.48c-.13.1-.13.23,0,.64s.18.75-.14,1a.77.77,0,0,1-1.16-.18,4.64,4.64,0,0,1-.42-.72l.34-.2s.25.42.41.63.34.22.49.1.12-.2,0-.55c-.22-.54-.17-.84.14-1.09s.79-.18,1.1.21A4.66,4.66,0,0,1,8.4,23l-.34.21s-.27-.44-.4-.61S7.34,22.38,7.21,22.48Zm1,3.63-.4-.32L8.41,25l.36-1.66.44.35-.3,1.09,1-.52.43.35-1.55.71Zm3.42,1.94-.75-.35.31-2.15,0,0-.87,1.9-.46-.21,1.06-2.29.77.35-.32,2.14,0,0,.87-1.89.46.2Zm2.79.65,0-.46-.86-.15-.17.43-.5-.09,1-2.39.95.16.12,2.59ZM17,28l-.41,0,0,.76-.5,0L16,26.3l.91-.06a.77.77,0,0,1,.94.79A.79.79,0,0,1,17,28Zm2.89.24a4.17,4.17,0,0,1-.82.15L19,28a7,7,0,0,0,.73-.16c.26-.08.33-.24.27-.42s-.15-.19-.52-.18c-.58,0-.85-.13-1-.51s.1-.8.59-1a4.94,4.94,0,0,1,.81-.15L20,26s-.51.1-.71.17-.35.21-.3.36.16.21.6.21.77.09.89.49A.75.75,0,0,1,19.9,28.23Zm2-.83L20.6,25.23,22,24.41l.22.38-.95.56.32.54.76-.45.22.37-.76.45.3.51,1-.56.22.38Zm4-3.22a4,4,0,0,1-.59.53l-.28-.27a5.93,5.93,0,0,0,.49-.48.33.33,0,0,0,0-.52.33.33,0,0,0-.47.07l-.31.38-.32-.27.31-.37a.37.37,0,0,0-.08-.47c-.14-.11-.29-.09-.45.1a4.13,4.13,0,0,0-.35.53l-.31-.21a2,2,0,0,1,.35-.62c.4-.49.71-.5,1.06-.22a.68.68,0,0,1,.27.58.52.52,0,0,1,.62.1A.71.71,0,0,1,25.93,24.18Z"/><path class="cls-1" d="M11.89,15.29l2,.72a2.12,2.12,0,0,0,.62,1.46,2.09,2.09,0,0,0,1.45.61l.72,2.06a1.4,1.4,0,1,0,2.05-.07,1.37,1.37,0,0,0-.72-.38l-.72-2.05.2-.17a2.1,2.1,0,0,0,.41-2.4l1.53-1.52a1.37,1.37,0,0,0,1.35-.36,1.4,1.4,0,1,0-2.35-.63L17,14.08a2.12,2.12,0,0,0-2.4.41,1.63,1.63,0,0,0-.17.2L12.33,14a1.38,1.38,0,0,0-.38-.71,1.41,1.41,0,1,0-.06,2Z"/></g></g></svg>