<svg xmlns="http://www.w3.org/2000/svg" viewBox="0 0 32 32"><defs><style>.cls-1{fill:#44d62c;}</style></defs><title>icon</title><g id="Layer_2" data-name="Layer 2"><path class="cls-1" d="M16,2A14,14,0,1,0,30,16,14,14,0,0,0,16,2Zm0,27a13,13,0,1,1,13-13A13,13,0,0,1,16,28.94Z"/><polygon class="cls-1" points="5.83 11.96 5.83 12.9 8.3 12.9 8.3 18.47 9.37 18.47 9.37 12.9 26.14 12.9 26.14 11.96 5.83 11.96"/><rect class="cls-1" x="5.83" y="19.06" width="20.3" height="0.93"/><polygon class="cls-1" points="11.1 13.45 11.1 18.47 12.22 18.47 12.22 16.34 16.15 16.34 16.15 18.47 17.21 18.47 17.21 13.45 16.15 13.45 16.15 15.54 12.22 15.54 12.22 13.45 11.1 13.45"/><polygon class="cls-1" points="19.5 18.47 21.54 16.47 23.52 18.47 25.01 18.47 22.3 15.75 24.63 13.45 23.14 13.45 21.39 15.08 21.39 15.08 19.77 13.45 18.28 13.45 20.66 15.75 20.67 15.76 17.99 18.47 19.5 18.47"/></g></svg>