<svg xmlns="http://www.w3.org/2000/svg" viewBox="0 0 32 32">
  <defs>
    <style>
      .cls-1 {
        fill: #44d62c;
      }
    </style>
  </defs>
  <title>icon</title>
  <g id="Layer_2" data-name="Layer 2">
    <path class="cls-1" d="M16,30A14,14,0,1,1,30,16,14.016,14.016,0,0,1,16,30ZM16,3.056A12.944,12.944,0,1,0,28.944,16,12.957,12.957,0,0,0,16,3.056Z"/>
    <path class="cls-1" d="M24.654,21.632H7.345a.494.494,0,0,1-.528-.453V10.643a.5.5,0,0,1,.528-.453H24.654a.5.5,0,0,1,.528.453V21.179A.494.494,0,0,1,24.654,21.632ZM7.873,20.727H24.126V11.1H7.873Z"/>
    <path class="cls-1" d="M16,18.847a2.936,2.936,0,1,1,2.937-2.936A2.939,2.939,0,0,1,16,18.847Zm0-5.28a2.344,2.344,0,1,0,2.345,2.344A2.347,2.347,0,0,0,16,13.567Z"/>
  </g>
</svg>
